HIERARCHY
ROOT Hips
{
	OFFSET 0.000000 71.427986 0.000000
	CHANNELS 6 Xposition Yposition Zposition Xrotation Yrotation Zrotation
	JOINT Pelvis
	{
		OFFSET 0.000000 0.000000 0.000000
		CHANNELS 3 Xrotation Yrotation Zrotation
		JOINT LeftUpLeg
		{
			OFFSET 6.797100 -2.508499 -1.318700
			CHANNELS 3 Xrotation Yrotation Zrotation
			JOINT LeftLeg
			{
				OFFSET 0.069008 -29.241863 0.690200
				CHANNELS 3 Xrotation Yrotation Zrotation
				JOINT LeftFoot
				{
					OFFSET -0.069008 -29.568123 -0.266800
					CHANNELS 3 Xrotation Yrotation Zrotation
					JOINT LeftToeBase
					{
						OFFSET 3.145500 -8.631000 16.059900
						CHANNELS 3 Xrotation Yrotation Zrotation
						End Site
						{
							OFFSET 0.000000 18.501587 0.000000
						}
					}
				}
			}
			JOINT Left_ShortSleeve
			{
				OFFSET 0.265923 -10.480953 1.153800
				CHANNELS 3 Xrotation Yrotation Zrotation
				End Site
				{
					OFFSET 1.725763 19.823879 0.000000
				}
			}
		}
		JOINT RightUpLeg
		{
			OFFSET -6.797100 -2.508499 -1.318700
			CHANNELS 3 Xrotation Yrotation Zrotation
			JOINT RightLeg
			{
				OFFSET -0.082453 -29.241932 0.688000
				CHANNELS 3 Xrotation Yrotation Zrotation
				JOINT RightFoot
				{
					OFFSET 0.082453 -29.568058 -0.264600
					CHANNELS 3 Xrotation Yrotation Zrotation
					JOINT RightToeBase
					{
						OFFSET -3.115300 -8.682800 16.113400
						CHANNELS 3 Xrotation Yrotation Zrotation
						End Site
						{
							OFFSET 0.000000 18.567114 0.000000
						}
					}
				}
			}
			JOINT Right_ShortSleeve
			{
				OFFSET -0.265923 -10.480953 1.153800
				CHANNELS 3 Xrotation Yrotation Zrotation
				End Site
				{
					OFFSET -1.725766 19.823910 0.000000
				}
			}
		}
	}
	JOINT Spine
	{
		OFFSET 0.000000 13.368103 0.470500
		CHANNELS 3 Xrotation Yrotation Zrotation
		JOINT Spine1
		{
			OFFSET 0.147000 13.837402 0.538800
			CHANNELS 3 Xrotation Yrotation Zrotation
			JOINT Spine2
			{
				OFFSET 0.168000 16.242897 -1.435500
				CHANNELS 3 Xrotation Yrotation Zrotation
				JOINT Neck
				{
					OFFSET 0.217200 18.631500 -1.679100
					CHANNELS 3 Xrotation Yrotation Zrotation
					JOINT Head
					{
						OFFSET 0.000000 6.599396 1.385900
						CHANNELS 3 Xrotation Yrotation Zrotation
						JOINT Hat
						{
							OFFSET -0.532200 27.220596 -10.096100
							CHANNELS 3 Xrotation Yrotation Zrotation
							End Site
							{
								OFFSET 0.000000 22.029861 0.000000
							}
						}
						JOINT HairD
						{
							OFFSET -10.777400 17.437393 -1.325900
							CHANNELS 3 Xrotation Yrotation Zrotation
							JOINT HairD1
							{
								OFFSET -3.290299 -11.051193 1.062200
								CHANNELS 3 Xrotation Yrotation Zrotation
								End Site
								{
									OFFSET 0.000000 11.579437 0.000000
								}
							}
						}
						JOINT HairB
						{
							OFFSET -10.777400 17.437393 1.467900
							CHANNELS 3 Xrotation Yrotation Zrotation
							JOINT HairB1
							{
								OFFSET -1.561200 -12.956299 3.590200
								CHANNELS 3 Xrotation Yrotation Zrotation
								End Site
								{
									OFFSET 0.000000 13.534866 0.000000
								}
							}
						}
						JOINT HairA
						{
							OFFSET 9.713100 17.437393 1.467900
							CHANNELS 3 Xrotation Yrotation Zrotation
							JOINT HairA1
							{
								OFFSET 1.561200 -12.956299 3.590200
								CHANNELS 3 Xrotation Yrotation Zrotation
								End Site
								{
									OFFSET 0.000000 13.534866 0.000000
								}
							}
						}
						JOINT HairC
						{
							OFFSET 9.713100 17.437393 -1.325900
							CHANNELS 3 Xrotation Yrotation Zrotation
							JOINT HairC1
							{
								OFFSET 3.290300 -11.051193 1.062200
								CHANNELS 3 Xrotation Yrotation Zrotation
								End Site
								{
									OFFSET 0.000000 11.579437 0.000000
								}
							}
						}
					}
				}
				JOINT LeftShoulder
				{
					OFFSET 5.101800 15.108002 -2.763700
					CHANNELS 3 Xrotation Yrotation Zrotation
					JOINT LeftArm
					{
						OFFSET 9.825497 2.506317 -1.597400
						CHANNELS 3 Xrotation Yrotation Zrotation
						JOINT LeftForeArm
						{
							OFFSET 21.966244 0.000000 0.000000
							CHANNELS 3 Xrotation Yrotation Zrotation
							JOINT LeftHand
							{
								OFFSET 33.879036 0.000000 0.000000
								CHANNELS 3 Xrotation Yrotation Zrotation
								JOINT LeftHandThumb1
								{
									OFFSET 6.715286 -2.359680 3.363841
									CHANNELS 3 Xrotation Yrotation Zrotation
									JOINT LeftHandThumb2
									{
										OFFSET 2.507072 -1.447464 1.447461
										CHANNELS 3 Xrotation Yrotation Zrotation
										JOINT LeftHandThumb3
										{
											OFFSET 2.898338 -1.673355 1.673357
											CHANNELS 3 Xrotation Yrotation Zrotation
											End Site
											{
												OFFSET -0.295959 3.727692 -0.131651
											}
										}
									}
								}
								JOINT LeftHandIndex1
								{
									OFFSET 14.190811 -0.254547 3.840278
									CHANNELS 3 Xrotation Yrotation Zrotation
									JOINT LeftHandIndex2
									{
										OFFSET 3.551727 0.000000 -0.000000
										CHANNELS 3 Xrotation Yrotation Zrotation
										JOINT LeftHandIndex3
										{
											OFFSET 2.894196 0.000000 0.000000
											CHANNELS 3 Xrotation Yrotation Zrotation
											End Site
											{
												OFFSET -1.000603 2.690872 0.366626
											}
										}
									}
								}
								JOINT LeftHandMiddle1
								{
									OFFSET 13.776489 0.000000 0.000000
									CHANNELS 3 Xrotation Yrotation Zrotation
									JOINT LeftHandMiddle2
									{
										OFFSET 3.438232 0.000000 0.000000
										CHANNELS 3 Xrotation Yrotation Zrotation
										JOINT LeftHandMiddle3
										{
											OFFSET 3.691551 0.000000 0.000000
											CHANNELS 3 Xrotation Yrotation Zrotation
											End Site
											{
												OFFSET -1.082298 3.499527 0.457670
											}
										}
									}
								}
								JOINT LeftHandRing1
								{
									OFFSET 13.966164 -0.268127 -3.067488
									CHANNELS 3 Xrotation Yrotation Zrotation
									JOINT LeftHandRing2
									{
										OFFSET 3.162567 0.000000 0.000000
										CHANNELS 3 Xrotation Yrotation Zrotation
										JOINT LeftHandRing3
										{
											OFFSET 3.324348 0.000000 0.000000
											CHANNELS 3 Xrotation Yrotation Zrotation
											End Site
											{
												OFFSET -0.861900 3.184998 0.405154
											}
										}
									}
								}
								JOINT LeftHandPinky1
								{
									OFFSET 13.131393 -0.168503 -5.746925
									CHANNELS 3 Xrotation Yrotation Zrotation
									JOINT LeftHandPinky2
									{
										OFFSET 2.849182 0.000000 0.000000
										CHANNELS 3 Xrotation Yrotation Zrotation
										JOINT LeftHandPinky3
										{
											OFFSET 2.805038 0.000000 0.000000
											CHANNELS 3 Xrotation Yrotation Zrotation
											End Site
											{
												OFFSET -0.882500 2.642609 0.325652
											}
										}
									}
								}
							}
							JOINT Left_Sleeve
							{
								OFFSET 6.592125 -0.646545 0.805568
								CHANNELS 3 Xrotation Yrotation Zrotation
								End Site
								{
									OFFSET -0.000179 20.275787 -0.000000
								}
							}
						}
					}
				}
				JOINT RightShoulder
				{
					OFFSET -5.731700 15.108002 -2.763700
					CHANNELS 3 Xrotation Yrotation Zrotation
					JOINT RightArm
					{
						OFFSET -9.825497 2.506317 -1.597400
						CHANNELS 3 Xrotation Yrotation Zrotation
						JOINT RightForeArm
						{
							OFFSET -21.966242 0.000000 0.000000
							CHANNELS 3 Xrotation Yrotation Zrotation
							JOINT RightHand
							{
								OFFSET -33.879032 0.000000 0.000000
								CHANNELS 3 Xrotation Yrotation Zrotation
								JOINT RightHandThumb1
								{
									OFFSET -6.715286 -2.359680 3.363841
									CHANNELS 3 Xrotation Yrotation Zrotation
									JOINT RightHandThumb2
									{
										OFFSET -2.507072 -1.447464 1.447461
										CHANNELS 3 Xrotation Yrotation Zrotation
										JOINT RightHandThumb3
										{
											OFFSET -2.898338 -1.673355 1.673357
											CHANNELS 3 Xrotation Yrotation Zrotation
											End Site
											{
												OFFSET 0.295959 3.727692 -0.131651
											}
										}
									}
								}
								JOINT RightHandIndex1
								{
									OFFSET -14.190811 -0.254547 3.840278
									CHANNELS 3 Xrotation Yrotation Zrotation
									JOINT RightHandIndex2
									{
										OFFSET -3.551727 0.000000 -0.000000
										CHANNELS 3 Xrotation Yrotation Zrotation
										JOINT RightHandIndex3
										{
											OFFSET -2.894196 0.000000 0.000000
											CHANNELS 3 Xrotation Yrotation Zrotation
											End Site
											{
												OFFSET 1.000603 2.690872 0.366626
											}
										}
									}
								}
								JOINT RightHandMiddle1
								{
									OFFSET -13.776489 0.000000 0.000000
									CHANNELS 3 Xrotation Yrotation Zrotation
									JOINT RightHandMiddle2
									{
										OFFSET -3.438232 0.000000 0.000000
										CHANNELS 3 Xrotation Yrotation Zrotation
										JOINT RightHandMiddle3
										{
											OFFSET -3.691551 0.000000 0.000000
											CHANNELS 3 Xrotation Yrotation Zrotation
											End Site
											{
												OFFSET 1.082298 3.499527 0.457670
											}
										}
									}
								}
								JOINT RightHandRing1
								{
									OFFSET -13.966164 -0.268127 -3.067488
									CHANNELS 3 Xrotation Yrotation Zrotation
									JOINT RightHandRing2
									{
										OFFSET -3.162567 0.000000 0.000000
										CHANNELS 3 Xrotation Yrotation Zrotation
										JOINT RightHandRing3
										{
											OFFSET -3.324348 0.000000 0.000000
											CHANNELS 3 Xrotation Yrotation Zrotation
											End Site
											{
												OFFSET 0.861900 3.184998 0.405154
											}
										}
									}
								}
								JOINT RightHandPinky1
								{
									OFFSET -13.131393 -0.168503 -5.746925
									CHANNELS 3 Xrotation Yrotation Zrotation
									JOINT RightHandPinky2
									{
										OFFSET -2.849182 0.000000 0.000000
										CHANNELS 3 Xrotation Yrotation Zrotation
										JOINT RightHandPinky3
										{
											OFFSET -2.805038 0.000000 0.000000
											CHANNELS 3 Xrotation Yrotation Zrotation
											End Site
											{
												OFFSET 0.882500 2.642609 0.325652
											}
										}
									}
								}
							}
							JOINT Right_Sleeve
							{
								OFFSET -6.592125 -0.646545 0.805568
								CHANNELS 3 Xrotation Yrotation Zrotation
								End Site
								{
									OFFSET 0.000179 20.275787 -0.000000
								}
							}
						}
					}
				}
				JOINT Bind_Right_JacketString
				{
					OFFSET -3.534800 11.969597 7.200700
					CHANNELS 3 Xrotation Yrotation Zrotation
					JOINT Bind_Right_JacketString1
					{
						OFFSET -0.319900 -6.102600 2.794100
						CHANNELS 3 Xrotation Yrotation Zrotation
						End Site
						{
							OFFSET 0.000000 6.719452 0.000000
						}
					}
				}
				JOINT Bind_Left_JacketString
				{
					OFFSET 2.904800 11.969597 7.200700
					CHANNELS 3 Xrotation Yrotation Zrotation
					JOINT Bind_Left_JacketString1
					{
						OFFSET 0.364800 -5.904503 3.186800
						CHANNELS 3 Xrotation Yrotation Zrotation
						End Site
						{
							OFFSET 0.000000 6.719513 0.000000
						}
					}
				}
				JOINT HairE
				{
					OFFSET 5.915200 17.612701 -11.592200
					CHANNELS 3 Xrotation Yrotation Zrotation
					JOINT HairE1
					{
						OFFSET 0.289200 -7.171898 -1.284500
						CHANNELS 3 Xrotation Yrotation Zrotation
						End Site
						{
							OFFSET 0.000000 7.291756 0.000000
						}
					}
				}
				JOINT HairF
				{
					OFFSET -0.864800 17.612701 -11.592200
					CHANNELS 3 Xrotation Yrotation Zrotation
					JOINT HairF1
					{
						OFFSET 0.000000 -14.087097 -2.127501
						CHANNELS 3 Xrotation Yrotation Zrotation
						End Site
						{
							OFFSET 0.000000 14.246841 0.000000
						}
					}
				}
				JOINT HairG
				{
					OFFSET -8.087700 17.612701 -11.592200
					CHANNELS 3 Xrotation Yrotation Zrotation
					JOINT HairG1
					{
						OFFSET -0.293600 -6.081398 -0.910100
						CHANNELS 3 Xrotation Yrotation Zrotation
						End Site
						{
							OFFSET 0.000000 6.156120 0.000000
						}
					}
				}
			}
		}
	}
	JOINT Pouch
	{
		OFFSET 0.000000 4.394501 10.847300
		CHANNELS 3 Xrotation Yrotation Zrotation
		End Site
		{
			OFFSET 0.000000 21.880577 0.000000
		}
	}
	JOINT Bag
	{
		OFFSET -13.229000 4.813004 -0.593300
		CHANNELS 3 Xrotation Yrotation Zrotation
		End Site
		{
			OFFSET 0.000000 21.880577 0.000000
		}
	}
	JOINT OccupyGuyFacialAnim_Joint
	{
		OFFSET 1.000000 -70.206398 -1.655000
		CHANNELS 3 Xrotation Yrotation Zrotation
		End Site
		{
			OFFSET 0.000000 21.880577 0.000000
		}
	}
}
MOTION
Frames: 4
Frame Time: 0.016667
0.198729 57.820282 1.669842 26.341393 -23.154785 8.753880 0.000001 0.000001 0.000000 -73.229846 0.720771 22.004438 59.662679 -0.955926 4.850861 -8.915437 2.291388 -16.830431 -0.000000 0.000000 0.000000 0.000004 0.000001 0.000000 -69.503199 -7.613614 -20.666751 64.710401 -1.526238 -7.634677 -17.587204 -3.280440 15.474137 0.000000 0.000001 0.000000 -0.000000 0.000003 -0.000000 14.945962 2.627560 -0.803760 8.954924 1.454251 -0.667651 8.929228 1.567216 -0.769626 -7.642829 3.429837 -7.508561 -43.074772 9.987861 7.921034 -0.000000 -0.000000 -0.000000 -0.000000 -0.000000 -0.000000 -0.000000 -0.000000 0.000000 -0.000000 -0.000000 -0.000001 -0.000000 -0.000000 -0.000000 -0.000000 -0.000000 -0.000001 -0.000000 -0.000000 -0.000000 -0.000000 -0.000000 -0.000000 -0.000000 -0.000000 -0.000000 3.858306 -6.469474 9.422128 -49.881053 5.784877 -65.370935 0.008395 -89.198412 0.008068 6.361844 1.183435 20.596050 -17.636590 -15.237881 2.797068 5.947455 34.911658 2.502024 0.000001 0.000002 0.000001 0.388051 -2.283067 19.290712 0.587326 2.787351 -23.793316 -0.000006 0.000000 -0.000002 0.388688 -2.284900 19.306720 0.588104 2.789114 -23.809329 -0.000001 -0.000000 0.000001 0.388040 -2.283052 19.290715 0.587339 2.787358 -23.793316 0.000003 -0.000000 -0.000002 -0.967847 1.537865 19.792310 0.593520 -1.271996 -24.261665 -0.000005 0.000001 0.000001 -0.000002 0.000001 0.000001 3.960224 12.222855 4.273400 -38.946913 11.840056 48.020840 -0.000346 93.734887 0.000401 19.436164 10.205508 7.992482 30.641414 13.211211 -0.281793 7.057627 -37.365882 -1.833668 0.000000 -0.000001 -0.000000 0.155606 1.465703 -12.119894 0.379776 -2.270629 18.987439 -0.000003 0.000001 0.000000 0.155610 1.465703 -12.119901 0.379766 -2.270639 18.987439 0.000003 -0.000002 -0.000001 0.155606 1.465701 -12.119892 0.379781 -2.270654 18.987419 0.000004 -0.000001 0.000001 0.155611 1.465707 -12.119899 0.379778 -2.270654 18.987432 0.000005 -0.000001 0.000000 0.000001 -0.000000 0.000001 -0.000001 -0.000000 -0.000001 -0.000001 0.000000 -0.000001 -0.000001 -0.000000 0.000001 -0.000001 -0.000000 0.000001 -0.000001 -0.000000 -0.000001 -0.000001 0.000000 -0.000001 -0.000001 -0.000000 0.000001 -0.000001 -0.000000 0.000001 -0.000001 -0.000000 -0.000001 -0.000001 0.000000 -0.000001 0.000001 0.000001 0.000000 0.000001 0.000001 0.000000 0.000001 0.000001 0.000000 
0.183460 57.885353 1.728279 26.466816 -23.218881 8.805430 0.000000 0.000001 0.000000 -73.166960 0.786599 22.045378 59.555377 -1.011370 4.869159 -8.995653 2.310069 -16.856354 -0.000000 -0.000000 0.000000 0.000001 0.000000 -0.000001 -69.437998 -7.703148 -20.555492 64.514081 -1.631868 -7.759031 -17.608328 -3.143566 15.466315 0.000000 -0.000001 -0.000000 0.000002 -0.000001 -0.000002 14.953711 2.495221 -0.840363 8.942644 1.377984 -0.669286 8.917279 1.494824 -0.768337 -7.594610 3.504781 -7.365771 -43.161318 10.368548 7.992465 -0.000000 0.000000 0.000000 -0.000000 0.000000 0.000000 -0.000000 0.000000 0.000001 -0.000000 0.000000 -0.000000 -0.000000 -0.000000 -0.000000 -0.000000 0.000000 -0.000000 -0.000000 -0.000000 -0.000000 -0.000000 0.000000 0.000000 -0.000000 0.000000 0.000000 3.797571 -6.379669 8.897877 -49.025066 5.833141 -65.558601 0.023449 -90.336184 0.023274 6.494233 1.888095 21.591276 -17.777599 -15.392982 2.760396 5.958642 35.079940 2.510959 0.000000 -0.000000 0.000002 0.392782 -2.296501 19.408852 0.610794 2.839938 -24.271490 -0.000000 0.000001 -0.000002 0.393423 -2.298312 19.424865 0.611595 2.841711 -24.287494 0.000003 -0.000000 -0.000001 0.392773 -2.296481 19.408860 0.610806 2.839953 -24.271489 -0.000000 0.000002 -0.000002 -0.970970 1.521643 19.910053 0.617391 -1.219610 -24.738160 0.000002 -0.000001 0.000003 -0.000000 -0.000001 -0.000002 3.972537 12.168645 4.140058 -38.744477 11.705565 49.039969 0.000520 95.072053 -0.000479 22.139751 11.186711 7.333647 30.626445 13.316670 -0.202572 7.068298 -37.497776 -1.838793 0.000000 -0.000001 0.000000 0.168381 1.523993 -12.609630 0.421760 -2.389062 20.020292 -0.000003 0.000003 0.000001 0.168387 1.524000 -12.609632 0.421762 -2.389080 20.020292 0.000003 -0.000001 0.000001 0.168375 1.523991 -12.609637 0.421759 -2.389081 20.020297 -0.000001 -0.000001 -0.000000 0.168381 1.523994 -12.609640 0.421756 -2.389082 20.020300 -0.000000 0.000001 0.000001 0.000001 0.000000 0.000000 -0.000001 -0.000001 0.000000 -0.000001 0.000000 0.000001 -0.000001 -0.000001 0.000000 -0.000001 -0.000001 0.000000 -0.000001 -0.000001 0.000000 -0.000001 0.000000 0.000001 -0.000001 -0.000001 0.000000 -0.000001 -0.000001 0.000000 -0.000001 -0.000001 0.000000 -0.000001 0.000000 0.000001 0.000000 0.000001 0.000000 0.000000 0.000001 0.000000 0.000000 0.000001 0.000000 
0.159678 57.928497 1.769621 26.613976 -23.299483 8.873802 -0.000001 0.000002 -0.000001 -73.145643 0.814700 22.097841 59.487649 -1.038733 4.893058 -9.072714 2.331785 -16.916195 -0.000000 -0.000000 -0.000000 -0.000002 0.000000 -0.000000 -69.437192 -7.754672 -20.422539 64.396089 -1.609174 -7.859525 -17.635967 -3.142427 15.431868 -0.000000 0.000001 -0.000000 -0.000002 0.000002 -0.000000 14.959793 2.350485 -0.857103 8.932676 1.291005 -0.662405 8.908016 1.411641 -0.757965 -7.575342 3.601993 -7.236722 -43.266667 10.835726 8.058441 0.000000 -0.000000 -0.000000 0.000000 -0.000000 -0.000000 0.000000 -0.000000 -0.000000 0.000000 -0.000000 -0.000001 0.000000 0.000000 0.000000 0.000000 -0.000000 -0.000001 0.000000 0.000000 0.000000 0.000000 -0.000000 -0.000000 0.000000 -0.000000 -0.000000 3.730452 -6.286346 8.218743 -48.220220 5.755349 -65.566606 -0.002577 -91.419131 -0.002412 6.568295 2.351829 22.524197 -17.920166 -15.550500 2.725534 5.970019 35.250490 2.519948 0.000001 0.000001 -0.000000 0.397589 -2.310116 19.528566 0.616514 2.852531 -24.386256 0.000002 0.000001 -0.000000 0.398233 -2.311932 19.544576 0.617309 2.854289 -24.402260 0.000003 -0.000001 0.000001 0.397586 -2.310099 19.528563 0.616506 2.852538 -24.386244 -0.000002 -0.000001 -0.000000 -0.974131 1.505202 20.029354 0.623215 -1.207085 -24.852514 0.000002 -0.000001 0.000003 0.000001 0.000002 -0.000001 3.981620 12.107282 3.979453 -38.415856 11.620491 49.978769 0.000955 96.616509 -0.001000 23.882036 11.595330 6.699892 30.612894 13.427134 -0.120948 7.079116 -37.631450 -1.843961 -0.000000 -0.000001 0.000001 0.181680 1.582213 -13.100023 0.465952 -2.506924 21.054745 -0.000003 -0.000000 0.000000 0.181680 1.582217 -13.100016 0.465951 -2.506939 21.054746 0.000000 0.000000 -0.000003 0.181682 1.582211 -13.100019 0.465956 -2.506949 21.054734 0.000001 -0.000000 -0.000001 0.181683 1.582210 -13.100028 0.465945 -2.506933 21.054755 -0.000002 0.000001 0.000001 0.000001 0.000001 -0.000001 0.000003 -0.000000 -0.000001 0.000001 -0.000001 0.000001 0.000003 -0.000000 0.000001 0.000003 -0.000000 0.000001 0.000003 -0.000000 -0.000001 0.000001 -0.000001 0.000001 0.000003 -0.000000 0.000001 0.000003 -0.000000 0.000001 0.000003 -0.000000 -0.000001 0.000001 -0.000001 0.000001 -0.000001 0.000002 -0.000001 -0.000001 0.000002 -0.000001 -0.000001 0.000002 -0.000001 
0.126738 57.951042 1.795433 26.781319 -23.391707 8.961755 -0.000000 0.000000 -0.000001 -73.162179 0.814981 22.156973 59.452501 -1.042990 4.925712 -9.145651 2.355548 -17.002096 -0.000000 -0.000000 -0.000000 -0.000002 0.000001 -0.000000 -69.495911 -7.771913 -20.267048 64.339699 -1.596505 -7.964953 -17.675758 -3.151938 15.413765 0.000000 -0.000000 0.000000 0.000004 0.000001 -0.000000 14.968564 2.203786 -0.851706 8.925399 1.196950 -0.646765 8.901936 1.320517 -0.738013 -7.587608 3.716969 -7.129050 -43.384989 11.376621 8.087225 0.000000 0.000000 0.000001 0.000000 0.000000 0.000001 0.000000 0.000000 0.000001 0.000000 0.000000 0.000000 -0.000000 0.000000 0.000000 0.000000 0.000000 0.000000 -0.000000 0.000000 0.000000 0.000000 0.000000 0.000001 0.000000 0.000000 0.000001 3.660238 -6.192012 7.427267 -47.464019 5.638790 -65.420959 0.009156 -92.433551 0.009275 6.579943 2.602510 23.316903 -18.073901 -15.721297 2.690579 5.981498 35.423427 2.529097 0.000001 0.000001 0.000001 0.402502 -2.323883 19.649983 0.622315 2.865280 -24.502629 0.000003 0.000000 -0.000000 0.403153 -2.325680 19.666001 0.623110 2.867034 -24.518639 0.000002 0.000000 -0.000003 0.402488 -2.323870 19.649995 0.622318 2.865291 -24.502621 0.000002 0.000001 -0.000001 -0.977280 1.488514 20.150351 0.629091 -1.194358 -24.968467 -0.000005 -0.000002 -0.000001 -0.000001 0.000001 -0.000000 3.982086 12.033534 3.810702 -38.063295 11.622200 50.879640 0.000350 98.202076 -0.000319 24.991845 11.467089 6.028760 30.609438 13.454845 -0.100488 7.090088 -37.767009 -1.849176 0.000000 -0.000001 0.000001 0.195486 1.640394 -13.591125 0.512322 -2.624107 22.090922 -0.000000 0.000000 -0.000001 0.195484 1.640393 -13.591129 0.512323 -2.624117 22.090903 0.000003 -0.000001 0.000001 0.195482 1.640387 -13.591122 0.512323 -2.624130 22.090894 0.000000 -0.000000 -0.000002 0.195489 1.640386 -13.591131 0.512321 -2.624119 22.090906 -0.000001 0.000000 0.000001 -0.000002 0.000000 0.000000 0.000001 -0.000001 0.000002 0.000001 0.000000 0.000000 0.000001 -0.000001 0.000002 0.000001 -0.000001 0.000002 0.000001 -0.000001 0.000002 0.000001 0.000000 0.000000 0.000001 -0.000001 0.000002 0.000001 -0.000001 0.000002 0.000001 -0.000001 0.000002 0.000001 0.000000 0.000000 -0.000000 0.000000 -0.000001 -0.000000 0.000000 -0.000001 -0.000000 0.000000 -0.000001 
